<?xml version="1.0" encoding="iso-8859-1"?>
<!-- Generator: Adobe Illustrator 19.0.0, SVG Export Plug-In . SVG Version: 6.00 Build 0)  -->
<svg version="1.1" id="Capa_1" xmlns="http://www.w3.org/2000/svg" xmlns:xlink="http://www.w3.org/1999/xlink" x="0px" y="0px"
	 viewBox="0 0 512 512" style="enable-background:new 0 0 512 512;" xml:space="preserve">
<path style="fill:#6C7782;" d="M506.992,456.075H5.008c-2.766,0-5.008-2.243-5.008-5.009v-28.104c0-2.766,2.243-5.008,5.008-5.008
	h501.983c2.766,0,5.008,2.243,5.008,5.008v28.104C512,453.832,509.757,456.075,506.992,456.075z"/>
<path style="fill:#4E5860;" d="M506.992,456.075h-51.861v-38.121h51.861c2.766,0,5.008,2.243,5.008,5.008v28.104
	C512,453.832,509.757,456.075,506.992,456.075z"/>
<path style="fill:#6C7782;" d="M384.658,226.086c-4.149,0-7.513-3.364-7.513-7.513v-32.951c0-4.149,3.364-7.513,7.513-7.513
	c4.149,0,7.513,3.364,7.513,7.513v32.951C392.171,222.723,388.807,226.086,384.658,226.086z"/>
<g>
	<path style="fill:#EEA33E;" d="M490.014,281.353H279.302c-2.766,0-5.008-2.243-5.008-5.008v-9.645
		c0-26.579,21.547-48.127,48.127-48.127h124.476c26.579,0,48.127,21.547,48.127,48.127v9.645
		C495.022,279.111,492.78,281.353,490.014,281.353z"/>
	<path style="fill:#EEA33E;" d="M470.101,417.955H299.215c-13.764,0-24.922-11.158-24.922-24.922v-1.383
		c0-2.766,2.243-5.009,5.008-5.009h210.712c2.766,0,5.009,2.243,5.009,5.009v1.383C495.022,406.797,483.864,417.955,470.101,417.955
		z"/>
</g>
<g>
	<path style="fill:#DF862A;" d="M495.022,268.148v8.048c0,2.849-2.243,5.159-5.009,5.159h-33.727v-13.216
		c0-27.371-21.547-49.564-48.122-49.564h38.726C473.474,218.574,495.022,240.768,495.022,268.148z"/>
	<path style="fill:#DF862A;" d="M495.022,391.8v0.485c0,14.177-11.158,25.67-24.922,25.67h-38.736
		c13.763,0,24.922-11.493,24.922-25.67v-5.644h33.727C492.78,386.641,495.022,388.95,495.022,391.8z"/>
</g>
<path style="fill:#49B76E;" d="M490.014,386.641H279.302c-2.766,0-5.008-2.243-5.008-5.008v-21.296c0-2.766,2.243-5.008,5.008-5.008
	h210.712c2.766,0,5.009,2.243,5.009,5.008v21.296C495.022,384.399,492.78,386.641,490.014,386.641z"/>
<path style="fill:#DD4733;" d="M483.633,355.317h-197.95c-10.958,0-19.84-8.882-19.84-19.84v-2.972
	c0-10.958,8.882-19.84,19.84-19.84h197.95c10.958,0,19.84,8.882,19.84,19.84v2.972C503.473,346.435,494.59,355.317,483.633,355.317z
	"/>
<path style="fill:#35AA56;" d="M495.026,360.487v20.996c0,2.218-1.403,4.117-3.374,4.839c-0.557,0.206-1.156,0.32-1.785,0.32
	h-33.629v-31.312h33.629C492.715,355.329,495.026,357.64,495.026,360.487z"/>
<path style="fill:#D13D2A;" d="M503.476,333.105v1.775c0,11.287-9.151,20.439-20.439,20.439h-26.799v-42.651h26.799
	C494.325,312.666,503.476,321.818,503.476,333.105z"/>
<path style="fill:#FFD04F;" d="M480.021,281.353H289.295c-8.285,0-15.002,6.716-15.002,15.002v1.309
	c0,8.285,6.716,15.002,15.002,15.002h103.244l30.782,19.484c1.762,1.115,4.021,1.06,5.727-0.139l27.51-19.345h23.463
	c8.285,0,15.002-6.716,15.002-15.002v-1.309C495.022,288.07,488.306,281.353,480.021,281.353z"/>
<path style="fill:#F9BD16;" d="M495.026,296.355v1.31c0,8.285-6.716,15.001-15.001,15.001h-23.471l-0.316-31.312h23.786
	C488.31,281.354,495.026,288.07,495.026,296.355z"/>
<path style="fill:#E2E8ED;" d="M64.744,131.3V79.676H40.079c-2.849,0-5.159-2.31-5.159-5.159V61.084c0-2.849,2.31-5.159,5.159-5.159
	h29.989c10.525,0,19.056,8.531,19.056,19.056V131.3H64.744z"/>
<path style="fill:#DD4733;" d="M126.346,178.11L24.429,188.858l18.218,211.571c0.86,9.989,9.22,17.66,19.247,17.66h62.32h14.827
	h62.32c10.026,0,18.386-7.671,19.247-17.66l18.218-211.572L126.346,178.11z"/>
<path style="fill:#6C7782;" d="M248.478,155.208l-119.127,12.586L14.43,155.208v-18.9c0-2.766,2.243-5.008,5.008-5.008h224.032
	c2.766,0,5.008,2.243,5.008,5.008L248.478,155.208L248.478,155.208z"/>
<path style="fill:#5E6972;" d="M243.47,188.858H19.439c-2.766,0-5.008-2.243-5.008-5.008v-29.442h234.049v29.442
	C248.478,186.615,246.236,188.858,243.47,188.858z"/>
<path style="fill:#4E5860;" d="M248.652,155.208l-24.904,6.576l-27.424-6.576V131.3h47.32c2.766,0,5.008,2.243,5.008,5.008V155.208z
	"/>
<path style="fill:#424B51;" d="M243.643,188.858h-47.32v-34.45h52.329v29.442C248.652,186.615,246.409,188.858,243.643,188.858z"/>
<path style="fill:#D13D2A;" d="M238.83,188.863l-18.227,211.571c-0.857,9.989-9.214,17.651-19.238,17.651h-42.507
	c10.024,0,18.392-7.662,19.25-17.651l18.216-211.571H238.83z"/>
<path style="fill:#38B9D6;" d="M131.627,215.901H25.157c-3.004,0-5.373,2.557-5.144,5.552l8.626,112.672
	c0.205,2.689,2.447,4.765,5.144,4.765h97.845h97.371c2.689,0,4.926-2.065,5.142-4.744l9.077-112.672
	c0.241-3.002-2.13-5.572-5.142-5.572H131.627V215.901z"/>
<path style="fill:#1C9AAF;" d="M243.221,221.478l-9.086,112.667c-0.216,2.68-2.454,4.744-5.142,4.744h-45.01l9.907-122.985h44.19
	C241.093,215.905,243.464,218.475,243.221,221.478z"/>
<circle style="fill:#E2E8ED;" cx="132.294" cy="279.644" r="30.341"/>
<path style="fill:#CFDDE8;" d="M162.63,279.644c0,16.756-13.581,30.338-30.338,30.338c-12.433,0-23.113-7.475-27.798-18.174
	c4.338,2.399,9.331,3.761,14.637,3.761c16.756,0,30.338-13.586,30.338-30.338c0-4.323-0.904-8.442-2.54-12.165
	C156.288,258.227,162.63,268.193,162.63,279.644z"/>
<g>
	<circle style="fill:#DF862A;" cx="423.177" cy="241.189" r="7.738"/>
	<circle style="fill:#DF862A;" cx="384.662" cy="241.189" r="7.738"/>
	<circle style="fill:#DF862A;" cx="346.137" cy="241.189" r="7.738"/>
	<circle style="fill:#DF862A;" cx="403.915" cy="259.76" r="7.738"/>
	<circle style="fill:#DF862A;" cx="365.399" cy="259.76" r="7.738"/>
</g>
<g>
</g>
<g>
</g>
<g>
</g>
<g>
</g>
<g>
</g>
<g>
</g>
<g>
</g>
<g>
</g>
<g>
</g>
<g>
</g>
<g>
</g>
<g>
</g>
<g>
</g>
<g>
</g>
<g>
</g>
</svg>
